<svg width="36" height="36" viewBox="0 0 36 36" fill="none" xmlns="http://www.w3.org/2000/svg">
<path d="M17.6475 30.4395C24.6104 30.4395 30.3623 24.6777 30.3623 17.7246C30.3623 10.7617 24.6104 5 17.6475 5C10.6846 5 4.93263 10.7519 4.93263 17.7148H6.74904C6.74904 11.6699 11.6026 6.83594 17.6475 6.83594C23.6826 6.83594 28.5459 11.6797 28.5459 17.7246C28.5459 23.7598 23.6826 28.6426 17.6475 28.623C13.9072 28.6133 10.6358 26.7383 8.68263 23.877C8.36037 23.4375 7.84279 23.3008 7.40333 23.5742C6.97365 23.8281 6.84669 24.4141 7.20802 24.8926C9.58107 28.1836 13.3408 30.4395 17.6475 30.4395ZM3.30177 15.3613C2.50099 15.3613 2.27638 15.9082 2.73537 16.543L5.5088 20.4883C5.8799 21.0254 6.41701 21.0156 6.77833 20.4883L9.55177 16.5332C9.99123 15.9082 9.77638 15.3613 8.98537 15.3613H3.30177Z" fill="#00A4FF"/>
<path d="M17.5205 10.1953C16.8662 10.1953 16.3291 10.7227 16.3291 11.3867V18.5254C16.3291 18.8281 16.4268 19.1211 16.6709 19.4434L19.7276 23.4668C20.2256 24.1211 20.919 24.2383 21.5244 23.8184C22.0908 23.4277 22.1397 22.7051 21.6904 22.0996L17.3154 16.1621L18.7119 20.4688V11.3867C18.7119 10.7227 18.1846 10.1953 17.5205 10.1953Z" fill="#00A4FF"/>
</svg>
